<svg width="30" height="26" viewBox="0 0 30 26" fill="none" xmlns="http://www.w3.org/2000/svg">
<path d="M6.52169 13.175H2.53357C2.00618 13.175 1.57874 13.6025 1.57874 14.1299V24.1222C1.57874 24.6496 2.00618 25.077 2.53357 25.077H6.52169C7.04908 25.077 7.47653 24.6496 7.47653 24.1222V14.1299C7.47653 13.6025 7.04908 13.175 6.52169 13.175ZM5.56686 23.1673H3.4884V15.0846H5.56686V23.1673Z" fill="#9B9999"/>
<path d="M14.0295 7.88715H10.0415C9.51412 7.88715 9.08667 8.31459 9.08667 8.84198V24.1221C9.08667 24.6494 9.51412 25.0769 10.0415 25.0769H14.0296C14.557 25.0769 14.9845 24.6494 14.9845 24.1221V8.84198C14.9844 8.3147 14.5569 7.88715 14.0295 7.88715ZM13.0747 23.1672H10.9962V9.79681H13.0747V23.1672Z" fill="#9B9999"/>
<path d="M21.5373 13.9638H17.5492C17.0218 13.9638 16.5944 14.3913 16.5944 14.9186V24.1221C16.5944 24.6494 17.0218 25.0769 17.5492 25.0769H21.5373C22.0647 25.0769 22.4922 24.6494 22.4922 24.1221V14.9186C22.4922 14.3913 22.0647 13.9638 21.5373 13.9638ZM20.5825 23.1672H18.504V15.8735H20.5825V23.1672Z" fill="#9B9999"/>
<path d="M29.0452 8.23962H25.057C24.5296 8.23962 24.1022 8.66707 24.1022 9.19446V24.1221C24.1022 24.6495 24.5296 25.0769 25.057 25.0769H29.0451C29.5725 25.0769 30 24.6495 30 24.1221V9.19446C30.0001 8.66707 29.5725 8.23962 29.0452 8.23962ZM28.0904 23.1673H26.0118V10.1493H28.0903V23.1673H28.0904Z" fill="#9B9999"/>
<path d="M18.9819 9.96679C19.3294 10.2194 19.8029 10.2087 20.1388 9.94069L27.2755 4.24543L27.2439 5.18403C27.2262 5.7111 27.639 6.15276 28.1661 6.17048C28.1771 6.1708 28.1879 6.17101 28.1989 6.17101C28.7114 6.17101 29.1352 5.76436 29.1526 5.24832L29.2652 1.91001C29.274 1.64574 29.173 1.38963 28.9861 1.2027C28.7991 1.01565 28.5422 0.91423 28.2788 0.923566L24.9405 1.03613C24.4134 1.05385 24.0006 1.49562 24.0183 2.02258C24.036 2.54954 24.476 2.9615 25.0047 2.94474L25.8812 2.91524L19.5164 7.99453L12.2787 2.73393C11.9617 2.5035 11.5361 2.49013 11.2054 2.7003L0.443047 9.53584C-0.0021177 9.81858 -0.133779 10.4087 0.148958 10.8537C0.330907 11.1402 0.639954 11.2968 0.955792 11.2968C1.13084 11.2968 1.30813 11.2486 1.46684 11.1478L11.681 4.66025L18.9819 9.96679Z" fill="#9B9999"/>
</svg>
