<svg width="29" height="28" viewBox="0 0 29 28" fill="none" xmlns="http://www.w3.org/2000/svg">
<path d="M13.9488 0L13.0513 2.05631C12.5875 2.08459 12.1252 2.14341 11.6674 2.23205L10.2944 0.453038L8.81453 0.957914L8.80715 3.22133C8.18028 3.54466 7.57953 3.93556 7.01204 4.3918L4.92059 3.4469L3.84983 4.58974L4.92053 6.62752C4.57543 7.12139 4.27626 7.63774 4.02309 8.17162L1.72683 8.23446L1.2606 9.73039L3.11457 11.1007C3.02581 11.6558 2.98247 12.2167 2.97999 12.778L0.921509 13.8246L1.13711 15.3779L3.39651 15.8217C3.53121 16.2941 3.69768 16.7582 3.89778 17.2123L2.40879 19.0671L3.23988 20.3948L5.55454 19.8511C5.7002 20.0225 5.85158 20.1918 6.00969 20.3559C6.34247 20.7012 6.6917 21.019 7.05468 21.3101L6.60501 23.6364L7.95772 24.4205L9.725 22.8764C10.2325 23.0812 10.7532 23.245 11.2823 23.3682L11.8591 25.6409L13.4163 25.7685L14.3525 23.6252C14.9994 23.5862 15.6442 23.4891 16.2783 23.333L17.7656 25.0621L19.2159 24.4796L19.1734 23.603L15.788 21.0272C14.8025 21.2772 13.7805 21.3441 12.7767 21.2305C10.9041 21.0187 9.10455 20.1701 7.69228 18.7046C4.46426 15.3545 4.55656 10.0255 7.89503 6.78652C9.51205 5.21763 11.592 4.42174 13.6743 4.3992C15.8911 4.37517 18.1098 5.2274 19.7743 6.95476C22.4832 9.76624 22.8524 13.9956 20.9279 17.1975L22.8132 18.6325C23.0489 18.2609 23.2611 17.878 23.4472 17.486L25.7268 17.4231L26.193 15.9272L24.352 14.5662C24.4413 14.0066 24.4854 13.4398 24.4865 12.8741L26.5321 11.8312L26.3166 10.2779L24.0591 9.83406C23.8707 9.18356 23.6201 8.54631 23.3072 7.93308L24.6524 6.06353L23.7531 4.78199L21.5381 5.42735C21.5102 5.39776 21.4832 5.36776 21.455 5.33859C21.1013 4.97141 20.7279 4.635 20.3383 4.32884L20.7622 2.13199L19.4093 1.34799L17.7286 2.81634C17.1845 2.59663 16.6257 2.42561 16.0589 2.29857L15.5079 0.12758L13.9488 0ZM10.5192 9.08325C9.90923 9.09024 9.30458 9.24054 8.75007 9.51404L11.4168 11.5445C12.2233 12.1585 12.452 13.3254 11.8331 14.1445C11.214 14.9641 10.0253 15.0873 9.2071 14.4645L6.54227 12.4359C6.2694 13.903 6.78612 15.4575 8.0516 16.4209C9.18652 17.2847 10.6431 17.4464 11.8978 16.9942L12.1797 16.8924L12.4173 17.0737L20.3898 23.1428L20.6274 23.324L20.6071 23.6236C20.5106 24.958 21.0547 26.3226 22.1902 27.1869C23.4557 28.1503 25.0884 28.2302 26.4232 27.5716L23.7585 25.5431C22.9403 24.9202 22.7393 23.7379 23.3587 22.919C23.9779 22.1001 25.1595 22.0075 25.9662 22.6213L28.6311 24.6499C28.9033 23.1834 28.3887 21.6281 27.1236 20.6649C25.9846 19.7975 24.5396 19.6257 23.2923 20.0712L23.0121 20.1711L22.7745 19.9898L14.802 13.9208L14.5644 13.7396L14.5847 13.4419C14.6761 12.1172 14.1217 10.7676 12.9832 9.90063C12.2434 9.33753 11.3778 9.07349 10.5193 9.08331L10.5192 9.08325ZM13.0882 14.4237L22.7523 21.7817L22.087 22.6638L12.4211 15.304L13.0882 14.4237Z" fill="white"/>
</svg>
