<svg width="29" height="30" viewBox="0 0 29 30" fill="none" xmlns="http://www.w3.org/2000/svg">
<path d="M2.55185 22.5064C2.55185 20.9893 2.55185 3.22548 2.55185 1.70699C4.05406 1.70699 20.0797 1.70699 21.582 1.70699C21.582 2.24389 21.582 4.81449 21.582 7.97491C21.9494 7.90709 22.3263 7.86102 22.7127 7.86102C22.9106 7.86102 23.0977 7.90168 23.293 7.91935V0H0.842163V24.2134H14.9615V22.5064C9.82305 22.5064 3.47109 22.5064 2.55185 22.5064Z" fill="#9B9999"/>
<path d="M4.98291 13.0008H16.5791C16.693 12.3622 16.9181 11.7684 17.2137 11.2125H4.98291V13.0008Z" fill="#9B9999"/>
<path d="M19.1484 5.62115H4.98291V7.40948H19.1484V5.62115Z" fill="#9B9999"/>
<path d="M4.98291 18.5936H17.0049C17.3262 18.3983 17.6692 18.2397 18.0366 18.1421C17.6881 17.7367 17.4021 17.2812 17.158 16.8052H4.98291V18.5936Z" fill="#9B9999"/>
<path d="M22.7141 18.7725C25.2956 18.7725 27.3754 16.686 27.3754 14.1126C27.3754 11.5366 25.2955 9.45135 22.7141 9.45135C20.1435 9.45135 18.0624 11.5366 18.0624 14.1126C18.0624 16.686 20.1435 18.7725 22.7141 18.7725Z" fill="#9B9999"/>
<path d="M26.4548 19.5291H18.9843C17.6502 19.5291 16.5574 20.7521 16.5574 22.2584V29.7587C16.5574 29.8414 16.5953 29.9147 16.6007 30.0001H28.8315C28.8369 29.916 28.8749 29.8414 28.8749 29.7587V22.2584C28.8803 20.7561 27.7903 19.5291 26.4548 19.5291Z" fill="#9B9999"/>
</svg>
