<svg width="30" height="30" viewBox="0 0 30 30" fill="none" xmlns="http://www.w3.org/2000/svg">
<path d="M6.53162 11.1525V13.1579C6.53162 13.3182 6.66199 13.448 6.8223 13.448H7.63177C7.64988 13.3777 7.67783 13.3115 7.70314 13.2442C7.71556 13.2111 7.72382 13.1765 7.73777 13.1444C7.7874 13.0306 7.84587 12.922 7.91414 12.8196C7.92966 12.7968 7.94876 12.7771 7.96482 12.7549C8.02119 12.6768 8.08119 12.6023 8.14792 12.533C8.17845 12.5014 8.21156 12.4741 8.24361 12.4446C8.30308 12.3902 8.36361 12.3385 8.42929 12.2914C8.46755 12.2635 8.50687 12.2382 8.54724 12.2133C8.61398 12.1714 8.68277 12.1347 8.75414 12.1006C8.79708 12.0804 8.83898 12.0602 8.88292 12.0432C8.96208 12.0121 9.04376 11.9883 9.12755 11.9666C9.16792 11.9568 9.20619 11.9433 9.24703 11.9355C9.37324 11.9118 9.50203 11.8962 9.63498 11.8962C9.76793 11.8962 9.89671 11.9118 10.0229 11.9355C10.0638 11.9433 10.1021 11.9568 10.1424 11.9666C10.2262 11.9883 10.3079 12.0121 10.387 12.0432C10.431 12.0602 10.4729 12.0804 10.5158 12.1006C10.5872 12.1348 10.656 12.1714 10.7227 12.2133C10.7631 12.2382 10.8023 12.2635 10.8407 12.2914C10.9063 12.3385 10.9669 12.3902 11.0263 12.4446C11.0584 12.474 11.0915 12.5014 11.122 12.533C11.1888 12.6023 11.2488 12.6768 11.3051 12.7549C11.3212 12.7772 11.3403 12.7968 11.3558 12.8196C11.4241 12.922 11.4826 13.0306 11.5322 13.1444C11.5461 13.1764 11.5544 13.2111 11.5668 13.2442C11.5922 13.3115 11.6201 13.3777 11.6382 13.448H15.9075C15.9256 13.3777 15.9535 13.3115 15.9789 13.2442C15.9913 13.2111 15.9995 13.1765 16.0135 13.1444C16.0631 13.0306 16.1216 12.922 16.1899 12.8196C16.2054 12.7968 16.2245 12.7771 16.2405 12.7549C16.2969 12.6768 16.3569 12.6023 16.4236 12.533C16.4542 12.5014 16.4873 12.4741 16.5193 12.4446C16.5788 12.3902 16.6393 12.3385 16.705 12.2914C16.7433 12.2635 16.7826 12.2382 16.823 12.2133C16.8897 12.1714 16.9585 12.1347 17.0299 12.1006C17.0728 12.0804 17.1147 12.0602 17.1586 12.0432C17.2378 12.0121 17.3195 11.9883 17.4033 11.9666C17.4436 11.9568 17.4819 11.9433 17.5227 11.9355C17.649 11.9118 17.7777 11.8962 17.9107 11.8962C18.0436 11.8962 18.1724 11.9118 18.2986 11.9355C18.3395 11.9433 18.3778 11.9568 18.4181 11.9666C18.5019 11.9883 18.5836 12.0121 18.6627 12.0432C18.7067 12.0602 18.7486 12.0804 18.7915 12.1006C18.8629 12.1348 18.9317 12.1714 18.9984 12.2133C19.0388 12.2382 19.0781 12.2635 19.1164 12.2914C19.1821 12.3385 19.2426 12.3902 19.3021 12.4446C19.3341 12.474 19.3672 12.5014 19.3977 12.533C19.4645 12.6023 19.5245 12.6768 19.5809 12.7549C19.5969 12.7772 19.616 12.7968 19.6315 12.8196C19.6998 12.922 19.7583 13.0306 19.8079 13.1444C19.8218 13.1764 19.8302 13.2111 19.8425 13.2442C19.8679 13.3115 19.8958 13.3777 19.9139 13.448H20.7234C20.8837 13.448 21.0141 13.3182 21.0141 13.1579V11.1525C21.0141 10.9921 20.8837 10.8618 20.7234 10.8618H19.4623H8.08335H6.8223C6.66199 10.8618 6.53162 10.9921 6.53162 11.1525Z" fill="#9B9999"/>
<path d="M16.8123 7.52375C16.6861 7.34686 16.4803 7.24133 16.263 7.24133H14.2903V9.82754H18.4577L16.8123 7.52375Z" fill="#9B9999"/>
<path d="M13.2557 7.24139H11.2835C11.0657 7.24139 10.8598 7.34692 10.7336 7.52382L9.08826 9.8276H13.2557V7.24139H13.2557Z" fill="#9B9999"/>
<path d="M9.63506 12.931C9.06453 12.931 8.60059 13.395 8.60059 13.9655C8.60059 14.536 9.06453 15 9.63506 15C10.2056 15 10.6695 14.536 10.6695 13.9655C10.6695 13.395 10.2055 12.931 9.63506 12.931Z" fill="#9B9999"/>
<path d="M17.9109 12.931C17.3404 12.931 16.8765 13.395 16.8765 13.9655C16.8765 14.536 17.3404 15 17.9109 15C18.4815 15 18.9454 14.536 18.9454 13.9655C18.9454 13.395 18.4815 12.931 17.9109 12.931Z" fill="#9B9999"/>
<path d="M17.3937 0H10.1523V2.58621V3.10348H17.3932L17.3937 0Z" fill="#9B9999"/>
<path d="M24.6351 3.10348V15.8059C25.3753 16.0113 26.07 16.3226 26.7041 16.724V1.55174C26.7041 0.696211 26.0079 0 25.1523 0H18.4282V2.06895H23.6006C24.1711 2.06895 24.6351 2.53295 24.6351 3.10348Z" fill="#9B9999"/>
<path d="M16.3739 27.9311H3.94564C3.37511 27.9311 2.91117 27.4671 2.91117 26.8966V3.10348C2.91117 2.53295 3.37511 2.069 3.94564 2.069H9.11806V0H2.3939C1.53785 0 0.842163 0.696211 0.842163 1.55174V28.4483C0.842163 29.3038 1.53785 30 2.3939 30H18.7118C17.7989 29.4745 17.005 28.7685 16.3739 27.9311Z" fill="#9B9999"/>
<path d="M3.94543 3.10333V26.8964H15.7091C15.136 25.8149 14.8075 24.5833 14.8075 23.2758C14.8075 18.9976 18.2881 15.5171 22.5662 15.5171C22.9179 15.5171 23.2613 15.5487 23.6007 15.5947V3.10333H18.4282C18.4282 3.67386 17.9638 4.13781 17.3938 4.13781H10.1523C9.5818 4.13781 9.11786 3.67386 9.11786 3.10333H3.94543ZM13.773 24.8274H6.01438C5.72833 24.8274 5.49711 24.5962 5.49711 24.3102C5.49711 24.0241 5.72833 23.7929 6.01438 23.7929H13.773C14.0591 23.7929 14.2903 24.0241 14.2903 24.3102C14.2903 24.5962 14.0591 24.8274 13.773 24.8274ZM13.773 22.2412H6.01438C5.72833 22.2412 5.49711 22.01 5.49711 21.724C5.49711 21.4379 5.72833 21.2067 6.01438 21.2067H13.773C14.0591 21.2067 14.2903 21.4379 14.2903 21.724C14.2903 22.01 14.0591 22.2412 13.773 22.2412ZM13.773 19.6551H6.01438C5.72833 19.6551 5.49711 19.4239 5.49711 19.1378C5.49711 18.8517 5.72833 18.6205 6.01438 18.6205H13.773C14.0591 18.6205 14.2903 18.8517 14.2903 19.1378C14.2903 19.4239 14.0591 19.6551 13.773 19.6551ZM9.89217 6.92265C10.2123 6.4747 10.7322 6.20681 11.283 6.20681H16.2625C16.8139 6.20681 17.3337 6.47476 17.6539 6.92265L19.7285 9.82749H20.7236C21.4545 9.82749 22.0488 10.4223 22.0488 11.1526V13.158C22.0488 13.8884 21.4545 14.4826 20.7236 14.4826H19.9064C19.6752 15.3728 18.8724 16.0344 17.9108 16.0344C16.9493 16.0344 16.1465 15.3729 15.9153 14.4826H11.6305C11.3993 15.3728 10.5965 16.0344 9.63495 16.0344C8.67342 16.0344 7.87063 15.3729 7.63942 14.4826H6.82168C6.09131 14.4826 5.49706 13.8883 5.49706 13.158V11.1526C5.49706 10.4223 6.09137 9.82749 6.82168 9.82749H7.81737L9.89217 6.92265Z" fill="#9B9999"/>
<path d="M22.5661 16.5518C18.8585 16.5518 15.8419 19.5683 15.8419 23.2759C15.8419 26.9835 18.8585 30 22.5661 30C26.2737 30 29.2902 26.9835 29.2902 23.2759C29.2902 19.5682 26.2737 16.5518 22.5661 16.5518ZM25.6696 23.7931H23.0833V26.3793C23.0833 26.6654 22.8516 26.8966 22.5661 26.8966C22.2806 26.8966 22.0488 26.6654 22.0488 26.3793V23.7931H19.4626C19.1771 23.7931 18.9453 23.5619 18.9453 23.2759C18.9453 22.9898 19.1771 22.7586 19.4626 22.7586H22.0488V20.1724C22.0488 19.8863 22.2806 19.6551 22.5661 19.6551C22.8516 19.6551 23.0833 19.8863 23.0833 20.1724V22.7586H25.6696C25.9551 22.7586 26.1868 22.9898 26.1868 23.2759C26.1868 23.5619 25.9551 23.7931 25.6696 23.7931Z" fill="#9B9999"/>
</svg>
