<svg width="81" height="80" viewBox="0 0 81 80" fill="none" xmlns="http://www.w3.org/2000/svg">
<path d="M75.1754 6.10352e-05H5.52552C3.03803 6.10352e-05 0.550537 2.48378 0.550537 4.96751V60.8519C0.550537 63.3357 3.03803 65.8194 5.52552 65.8194H30.4005V70.7868C30.4005 74.2362 25.919 75.7543 20.4505 75.7543V79.4792H60.2504V75.753C54.7806 75.753 50.3004 74.2349 50.3004 70.7855V65.8181H75.1754C77.6628 65.8181 80.1503 63.3343 80.1503 60.8506V4.96751C80.1503 2.48378 77.6628 6.10352e-05 75.1754 6.10352e-05ZM77.497 60.8519C77.497 61.8706 76.1942 63.1701 75.1754 63.1701H5.52552C4.50532 63.1701 3.20386 61.8706 3.20386 60.8519V55.8845H77.497V60.8519Z" fill="#222222"/>
<path d="M40.3505 62.0944C41.0378 62.0944 41.5949 61.5381 41.5949 60.8519C41.5949 60.1657 41.0378 59.6094 40.3505 59.6094C39.6632 59.6094 39.1061 60.1657 39.1061 60.8519C39.1061 61.5381 39.6632 62.0944 40.3505 62.0944Z" fill="#222222"/>
</svg>
