<svg width="24" height="22" viewBox="0 0 24 22" fill="none" xmlns="http://www.w3.org/2000/svg">
<path fill-rule="evenodd" clip-rule="evenodd" d="M0.28569 4.39649C0.28569 1.96837 2.36727 0 4.93504 0H18.8831C21.4508 0 23.5324 1.96837 23.5324 4.39649V17.586C23.5324 20.014 21.4508 21.9824 18.8831 21.9824H4.93504C2.36727 21.9824 0.28569 20.014 0.28569 17.586V4.39649ZM4.93504 2.19825C3.65116 2.19825 2.61036 3.18243 2.61036 4.39649V17.586C2.61036 18.8001 3.65116 19.7842 4.93504 19.7842H11.9091V12.0903H10.7467C10.1048 12.0903 9.58439 11.5983 9.58439 10.9912C9.58439 10.3842 10.1048 9.8921 10.7467 9.8921H11.9091V8.24342C11.9091 6.11881 13.7304 4.39649 15.9772 4.39649H16.6746C17.3166 4.39649 17.837 4.88859 17.837 5.49561C17.837 6.10264 17.3166 6.59474 16.6746 6.59474H15.9772C15.0144 6.59474 14.2337 7.33287 14.2337 8.24342V9.8921H16.6746C17.3166 9.8921 17.837 10.3842 17.837 10.9912C17.837 11.5983 17.3166 12.0903 16.6746 12.0903H14.2337V19.7842H18.8831C20.167 19.7842 21.2078 18.8001 21.2078 17.586V4.39649C21.2078 3.18243 20.167 2.19825 18.8831 2.19825H4.93504Z" fill="#303030"/>
</svg>
