<svg width="26" height="23" viewBox="0 0 26 23" fill="none" xmlns="http://www.w3.org/2000/svg">
<path d="M14.8408 8.00527C13.3828 7.64515 11.8638 7.64515 10.4058 8.00527C10.3809 8.01142 10.356 8.01769 10.3312 8.02408C10.1781 8.06342 10.0135 8.03668 9.88625 7.95123C8.35249 6.92126 7.55134 6.96726 7.35309 7.00163C7.32123 7.00716 7.29701 7.02839 7.28599 7.05564C7.2832 7.06253 7.28045 7.06942 7.2777 7.07631C6.96192 7.87065 6.91368 8.75078 7.13805 9.57474C7.15112 9.62272 7.1651 9.67047 7.18 9.71799C7.18098 9.72111 7.18196 9.72422 7.18295 9.72733C7.19587 9.76816 7.18639 9.81211 7.15746 9.8459C7.13543 9.87151 7.11374 9.89746 7.09239 9.92364C6.482 10.6721 6.15175 11.6264 6.16633 12.6107C6.16633 16.6075 8.49565 17.5255 10.7313 17.7969L10.7775 17.8023C12.0224 17.9685 13.2157 17.9582 14.4566 17.7701L14.4879 17.7668C16.7344 17.5233 19.0802 16.6292 19.0802 12.6107C19.0948 11.6264 18.7646 10.6721 18.1542 9.92364C18.1346 9.89965 18.1147 9.87578 18.0945 9.85213L18.093 9.8504C18.0617 9.81384 18.0514 9.7662 18.0654 9.72191C18.0807 9.67301 18.0951 9.62399 18.1084 9.57474C18.333 8.74846 18.2819 7.8657 17.9609 7.07101C17.9588 7.06613 17.9569 7.06126 17.9549 7.05639C17.9436 7.02864 17.9189 7.00702 17.8864 7.00141C17.6872 6.96706 16.8905 6.92343 15.3603 7.95123C15.2331 8.03663 15.0685 8.06317 14.9154 8.02404C14.8906 8.01767 14.8657 8.01142 14.8408 8.00527Z" stroke="#303030" stroke-width="2" stroke-linecap="round" stroke-linejoin="round"/>
<path d="M1 11.6019C1 3.05344 3.05153 1.22127 12.6234 1.22127C22.1952 1.22127 24.2467 3.05344 24.2467 11.6019C24.2467 20.1503 22.1952 21.9825 12.6234 21.9825C3.05153 21.9825 1 20.1503 1 11.6019Z" stroke="#303030" stroke-width="2"/>
</svg>
