<svg width="26" height="24" viewBox="0 0 26 24" fill="none" xmlns="http://www.w3.org/2000/svg">
<path d="M20.7713 1H5.98196C3.64652 1 1.75327 2.79028 1.75327 4.99871V18.9837C1.75327 21.1922 3.64652 22.9824 5.98196 22.9824H20.7713C23.1068 22.9824 25 21.1922 25 18.9837V4.99871C25 2.79028 23.1068 1 20.7713 1Z" stroke="#303030" stroke-width="2" stroke-miterlimit="10"/>
<path d="M13.3766 16.8762C16.2297 16.8762 18.5425 14.6891 18.5425 11.9912C18.5425 9.29332 16.2297 7.10623 13.3766 7.10623C10.5235 7.10623 8.21065 9.29332 8.21065 11.9912C8.21065 14.6891 10.5235 16.8762 13.3766 16.8762Z" stroke="#303030" stroke-width="2" stroke-miterlimit="10"/>
<path d="M20.157 7.10625C21.0485 7.10625 21.7713 6.42279 21.7713 5.57969C21.7713 4.7366 21.0485 4.05313 20.157 4.05313C19.2654 4.05313 18.5426 4.7366 18.5426 5.57969C18.5426 6.42279 19.2654 7.10625 20.157 7.10625Z" fill="#303030"/>
</svg>
