<svg width="25" height="22" viewBox="0 0 25 22" fill="none" xmlns="http://www.w3.org/2000/svg">
<path d="M5.04488 8.99279C5.04488 8.44095 5.51797 7.99359 6.10155 7.99359H7.15822C7.74179 7.99359 8.21489 8.44094 8.21489 8.99279V16.9864C8.21489 17.5383 7.74179 17.9856 7.15822 17.9856H6.10155C5.51797 17.9856 5.04488 17.5383 5.04488 16.9864V8.99279Z" fill="#303030"/>
<path d="M11.3848 17.9856H12.4415C13.0251 17.9856 13.4981 17.5383 13.4981 16.9864V12.49C13.4981 10.9912 16.6681 9.992 16.6681 11.9904V16.9868C16.6681 17.5387 17.1412 17.9856 17.7248 17.9856H18.7815C19.3651 17.9856 19.8382 17.5383 19.8382 16.9864V10.9912C19.8382 8.99279 18.2531 7.99359 16.1398 7.99359C14.0265 7.99359 13.4981 9.49239 13.4981 9.49239V8.99279C13.4981 8.44094 13.0251 7.99359 12.4415 7.99359H11.3848C10.8012 7.99359 10.3281 8.44095 10.3281 8.99279V16.9864C10.3281 17.5383 10.8012 17.9856 11.3848 17.9856Z" fill="#303030"/>
<path fill-rule="evenodd" clip-rule="evenodd" d="M20.895 0C22.6458 0 24.0651 1.34208 24.0651 2.99761V18.9848C24.0651 20.6404 22.6458 21.9824 20.895 21.9824H3.98832C2.23758 21.9824 0.818314 20.6404 0.818314 18.9848V2.99761C0.818314 1.34208 2.23758 0 3.98832 0H20.895ZM20.895 1.9984C21.4786 1.9984 21.9517 2.44577 21.9517 2.99761V18.9848C21.9517 19.5367 21.4786 19.984 20.895 19.984H3.98832C3.40475 19.984 2.93165 19.5367 2.93165 18.9848V2.99761C2.93165 2.44577 3.40475 1.9984 3.98832 1.9984H20.895Z" fill="#303030"/>
<path d="M6.62988 6.99445C7.50526 6.99445 8.21489 6.32341 8.21489 5.49565C8.21489 4.66788 7.50526 3.99684 6.62988 3.99684C5.7545 3.99684 5.04488 4.66788 5.04488 5.49565C5.04488 6.32341 5.7545 6.99445 6.62988 6.99445Z" fill="#303030"/>
</svg>
