<svg width="23" height="18" viewBox="0 0 23 18" fill="none" xmlns="http://www.w3.org/2000/svg">
<path d="M12.7061 0.394989C10.9157 0.394989 9.40572 1.55519 9.40572 3.03985C9.40572 3.78976 9.79128 4.45667 10.4034 4.93328L10.7864 4.25497C10.4303 3.92123 10.2195 3.49541 10.2195 3.03985C10.2195 2.00754 11.3005 1.12741 12.7061 1.12741C14.1117 1.12741 15.1927 2.00754 15.1927 3.03985C15.1927 3.74798 14.684 4.38449 13.9107 4.71441L13.5724 5.59152C13.6583 5.57272 13.7431 5.5514 13.8262 5.52723L14.2402 6.1788C13.7734 6.47433 13.3216 6.84067 12.8372 7.29664L16.5151 14.5961C18.7876 14.6904 20.9803 13.6059 22.1102 11.8288L17.235 5.12155C16.3233 5.28541 15.5898 5.48996 14.9349 5.79693L14.5692 5.2214C15.4308 4.74879 16.0066 3.95635 16.0066 3.03989C16.0066 1.55523 14.4966 0.39503 12.7061 0.39503V0.394989ZM7.16026 0.636973C7.04 0.638194 6.91368 0.656097 6.7917 0.691823C6.51275 0.773366 6.27674 0.941416 6.17411 1.12273L6.16109 1.14592L3.2267 4.9015C3.13018 5.08265 3.11901 5.34693 3.20604 5.59201C3.29511 5.84254 3.47934 6.05201 3.66729 6.13815L10.1633 9.11504C10.3474 9.19947 10.6421 9.2129 10.916 9.13241C11.1848 9.05348 11.4131 8.89295 11.522 8.7055L12.6685 5.68385C12.6708 5.68385 12.673 5.68397 12.6753 5.68401L12.9614 4.94223C12.9575 4.94256 12.9534 4.94264 12.9496 4.94296L13.1714 4.35845L13.1845 4.33534C13.2871 4.15402 13.2993 3.88286 13.2093 3.63213C13.1194 3.3814 12.9336 3.17009 12.7376 3.08029L11.2873 2.4157C10.9915 2.74846 10.9008 3.22413 11.2717 3.6718L11.3671 3.81552L11.8322 4.03525L11.4589 4.695L11.4523 4.69215L11.0853 5.34197C11.0874 5.34291 11.0894 5.34372 11.0914 5.34461L10.8065 5.8482L6.21345 3.74338L7.05465 2.25664L7.2392 1.93031L8.63415 2.56963C8.7045 2.17046 8.85668 1.78643 9.10141 1.41387L7.57354 0.713796C7.45988 0.661713 7.31488 0.635468 7.16026 0.636973ZM17.0131 5.98284L18.1018 7.76588L14.8528 9.37273L13.9599 7.91074L13.764 7.58981L17.0131 5.98288V5.98284ZM16.6918 6.97747L14.8692 7.87892L15.174 8.37818L16.9966 7.47674L16.6918 6.97747ZM4.96923 7.55673L4.02568 9.22474L7.16822 10.6648L8.11191 8.99688L4.96923 7.55673ZM18.4066 8.26515L19.4953 10.0481L16.2463 11.6549L15.3536 10.1929L15.1577 9.872L18.4067 8.26507L18.4066 8.26515ZM18.0854 9.25969L16.2627 10.1611L16.5676 10.6604L18.3902 9.75896L18.0854 9.25969H18.0854ZM4.30101 10.1728H4.30092L0.623169 16.6733L0.899997 17.4395L4.3932 11.2653L5.1183 11.5976L1.62519 17.7717L2.63679 17.4757L3.22309 17.3041L2.90724 16.427L3.8791 16.1434L3.5628 15.2682L4.53575 14.9835L4.29296 14.3119L6.15431 11.0221L4.30101 10.1728Z" fill="white" stroke="white" stroke-width="0.125"/>
</svg>
