<svg width="81" height="59" viewBox="0 0 81 59" fill="none" xmlns="http://www.w3.org/2000/svg">
<path d="M73.517 47.8448H73.123C74.1207 47.8448 74.9286 47.0209 74.9286 46.0049V2.241C74.9286 1.22367 74.1207 0.401062 73.123 0.401062H7.61502C6.61737 0.401062 5.8081 1.22367 5.8081 2.241V46.0062C5.8081 47.0222 6.61737 47.8461 7.61502 47.8461H7.18385L0.550537 54.2733C0.550537 56.4789 2.33888 58.6858 4.52655 58.6858H76.1757C78.2386 58.6858 80.1503 56.4842 80.1503 54.272L73.517 47.8448ZM40.369 1.42767C40.5074 1.42262 40.6454 1.44547 40.7747 1.49484C40.9041 1.54422 41.0222 1.61911 41.1219 1.71505C41.2216 1.81099 41.3009 1.92601 41.3552 2.05324C41.4094 2.18047 41.4374 2.3173 41.4375 2.45557C41.4375 2.59384 41.4097 2.73072 41.3557 2.85802C41.3016 2.98532 41.2224 3.10044 41.1228 3.1965C41.0232 3.29257 40.9053 3.36762 40.776 3.41716C40.6467 3.4667 40.5087 3.48972 40.3703 3.48485C40.1035 3.47546 39.8507 3.36307 39.6653 3.17134C39.4798 2.9796 39.376 2.72348 39.3758 2.4569C39.3757 2.19032 39.4791 1.93406 39.6643 1.74209C39.8496 1.55012 40.1022 1.4374 40.369 1.42767ZM7.72115 49.1695H72.9784L76.8761 52.9474H47.7028L47.1748 52.248H33.5632L33.0339 52.9474H3.82209L7.72115 49.1695ZM46.0763 57.1465H34.6219C34.2292 57.1465 33.1838 57.1465 33.1838 55.8113H47.5157C47.5157 57.1465 46.4491 57.1465 46.0763 57.1465Z" fill="#222222"/>
</svg>
