<svg width="30" height="30" viewBox="0 0 30 30" fill="none" xmlns="http://www.w3.org/2000/svg">
<path d="M21.375 29.75L15.5 26.25L18.875 20.25L21 21.5L18.875 25.375L22.625 27.625L21.375 29.75ZM7.125 13.75L5 10L1.375 12.125L0.125 10L6 6.5L9.375 12.5L7.125 13.75Z" fill="#9B9999"/>
<path d="M27.5 7.5H20.625V5H25V0.625H27.5V7.5Z" fill="#9B9999"/>
<path d="M19.25 26.875L18.75 24.375C23.75 23.25 27.375 18.75 27.375 13.625C27.375 12.875 27.25 12 27.125 11.25L29.625 10.75C29.875 11.75 30 12.75 30 13.625C30 20.125 25.5 25.625 19.25 26.875Z" fill="#9B9999"/>
<path d="M12.25 26.625C6.625 24.875 2.75 19.75 2.75 13.75C2.75 12.125 3 10.5 3.625 9L6 9.875C5.5 11.125 5.25 12.375 5.25 13.75C5.25 18.625 8.375 22.75 12.875 24.25L12.25 26.625Z" fill="#9B9999"/>
<path d="M24.5 6.25C22.375 3.875 19.375 2.5 16.25 2.5C13.625 2.5 11.125 3.5 9.125 5.125L7.5 3.25C9.875 1.125 13 0 16.25 0C20.125 0 23.75 1.625 26.375 4.5L24.5 6.25Z" fill="#9B9999"/>
</svg>
