<svg width="30" height="30" viewBox="0 0 30 30" fill="none" xmlns="http://www.w3.org/2000/svg">
<path d="M15.2323 5.9375C15.2323 4.04206 13.6903 2.5 11.7948 2.5C11.1375 2.5 10.5227 2.68544 9.99995 3.00675C9.4772 2.68544 8.86245 2.5 8.20508 2.5C6.30964 2.5 4.76758 4.04206 4.76758 5.9375C4.76758 7.83294 6.30964 9.375 8.20508 9.375C8.86245 9.375 9.4772 9.18956 9.99995 8.86825C10.5227 9.18962 11.1375 9.375 11.7948 9.375C13.6903 9.375 15.2323 7.83294 15.2323 5.9375ZM9.02183 7.96688C8.76939 8.06888 8.4937 8.125 8.20514 8.125C6.99895 8.125 6.01764 7.14369 6.01764 5.9375C6.01764 4.73131 6.99895 3.75 8.20514 3.75C8.4937 3.75 8.76939 3.80612 9.02183 3.90812C8.60414 4.47725 8.35733 5.179 8.35733 5.9375C8.35733 6.696 8.60414 7.39769 9.02183 7.96688ZM9.99995 7.18669C9.75258 6.83225 9.60733 6.4015 9.60733 5.9375C9.60733 5.4735 9.75258 5.04275 9.99995 4.68831C10.2473 5.04275 10.3926 5.4735 10.3926 5.9375C10.3926 6.4015 10.2473 6.83225 9.99995 7.18669ZM10.9781 7.96688C11.3958 7.39775 11.6426 6.696 11.6426 5.9375C11.6426 5.179 11.3958 4.47731 10.9781 3.90812C11.2305 3.80612 11.5062 3.75 11.7948 3.75C13.001 3.75 13.9823 4.73131 13.9823 5.9375C13.9823 7.14369 13.001 8.125 11.7948 8.125C11.5062 8.125 11.2305 8.06888 10.9781 7.96688Z" fill="#9B9999"/>
<path d="M10 11.875H4.375C4.02988 11.875 3.75 12.1549 3.75 12.5C3.75 12.8451 4.02988 13.125 4.375 13.125H10C10.3451 13.125 10.625 12.8451 10.625 12.5C10.625 12.1549 10.3451 11.875 10 11.875Z" fill="#9B9999"/>
<path d="M19.375 25.625C19.0299 25.625 18.75 25.9049 18.75 26.25V26.875C18.75 27.2201 19.0299 27.5 19.375 27.5C19.7201 27.5 20 27.2201 20 26.875V26.25C20 25.9049 19.7201 25.625 19.375 25.625Z" fill="#9B9999"/>
<path d="M4.375 23.125C4.02987 23.125 3.75 23.4049 3.75 23.75C3.75 24.0951 4.02987 24.375 4.375 24.375H6.25C6.59512 24.375 6.875 24.0951 6.875 23.75C6.875 23.4049 6.59512 23.125 6.25 23.125H4.375Z" fill="#9B9999"/>
<path d="M10.625 20C10.625 19.6549 10.3451 19.375 10 19.375H4.375C4.02988 19.375 3.75 19.6549 3.75 20C3.75 20.3451 4.02988 20.625 4.375 20.625H10C10.3451 20.625 10.625 20.3451 10.625 20Z" fill="#9B9999"/>
<path d="M4.375 16.875H6.25C6.59512 16.875 6.875 16.5951 6.875 16.25C6.875 15.9049 6.59512 15.625 6.25 15.625H4.375C4.02987 15.625 3.75 15.9049 3.75 16.25C3.75 16.5951 4.02987 16.875 4.375 16.875Z" fill="#9B9999"/>
<path d="M22.8125 22.5C22.4674 22.5 22.1875 22.7799 22.1875 23.125V23.75C22.1875 24.0951 22.4674 24.375 22.8125 24.375C23.1576 24.375 23.4375 24.0951 23.4375 23.75V23.125C23.4375 22.7799 23.1576 22.5 22.8125 22.5Z" fill="#9B9999"/>
<path d="M26.25 22.5C25.9049 22.5 25.625 22.7799 25.625 23.125V23.75C25.625 24.0951 25.9049 24.375 26.25 24.375C26.5951 24.375 26.875 24.0951 26.875 23.75V23.125C26.875 22.7799 26.5951 22.5 26.25 22.5Z" fill="#9B9999"/>
<path d="M25.625 13.75H20C18.9661 13.75 18.125 14.5911 18.125 15.625C18.125 16.6589 18.9661 17.5 20 17.5H25.625C26.6589 17.5 27.5 16.6589 27.5 15.625C27.5 14.5911 26.6589 13.75 25.625 13.75ZM25.625 16.25H20C19.6554 16.25 19.375 15.9696 19.375 15.625C19.375 15.2804 19.6554 15 20 15H25.625C25.9696 15 26.25 15.2804 26.25 15.625C26.25 15.9696 25.9696 16.25 25.625 16.25Z" fill="#9B9999"/>
<path d="M26.25 19.375C25.9049 19.375 25.625 19.6549 25.625 20V20.625C25.625 20.9701 25.9049 21.25 26.25 21.25C26.5951 21.25 26.875 20.9701 26.875 20.625V20C26.875 19.6549 26.5951 19.375 26.25 19.375Z" fill="#9B9999"/>
<path d="M19.375 22.5C19.0299 22.5 18.75 22.7799 18.75 23.125V23.75C18.75 24.0951 19.0299 24.375 19.375 24.375C19.7201 24.375 20 24.0951 20 23.75V23.125C20 22.7799 19.7201 22.5 19.375 22.5Z" fill="#9B9999"/>
<path d="M28.125 11.25H20V1.875C20 0.841125 19.1589 0 18.125 0H1.875C0.841125 0 0 0.841125 0 1.875V26.25C0 27.2839 0.841125 28.125 1.875 28.125H13.75C14.0951 28.125 14.375 27.8451 14.375 27.5C14.375 27.1549 14.0951 26.875 13.75 26.875H1.875C1.53038 26.875 1.25 26.5946 1.25 26.25V1.875C1.25 1.53038 1.53038 1.25 1.875 1.25H18.125C18.4696 1.25 18.75 1.53038 18.75 1.875V11.25H17.5C16.4661 11.25 15.625 12.0911 15.625 13.125V28.125C15.625 29.1589 16.4661 30 17.5 30H28.125C29.1589 30 30 29.1589 30 28.125V13.125C30 12.0911 29.1589 11.25 28.125 11.25ZM28.75 28.125C28.75 28.4696 28.4696 28.75 28.125 28.75H17.5C17.1554 28.75 16.875 28.4696 16.875 28.125V13.125C16.875 12.7804 17.1554 12.5 17.5 12.5H28.125C28.4696 12.5 28.75 12.7804 28.75 13.125V28.125Z" fill="#9B9999"/>
<path d="M19.375 19.375C19.0299 19.375 18.75 19.6549 18.75 20V20.625C18.75 20.9701 19.0299 21.25 19.375 21.25C19.7201 21.25 20 20.9701 20 20.625V20C20 19.6549 19.7201 19.375 19.375 19.375Z" fill="#9B9999"/>
<path d="M22.8125 25.625C22.4674 25.625 22.1875 25.9049 22.1875 26.25V26.875C22.1875 27.2201 22.4674 27.5 22.8125 27.5C23.1576 27.5 23.4375 27.2201 23.4375 26.875V26.25C23.4375 25.9049 23.1576 25.625 22.8125 25.625Z" fill="#9B9999"/>
<path d="M22.8125 19.375C22.4674 19.375 22.1875 19.6549 22.1875 20V20.625C22.1875 20.9701 22.4674 21.25 22.8125 21.25C23.1576 21.25 23.4375 20.9701 23.4375 20.625V20C23.4375 19.6549 23.1576 19.375 22.8125 19.375Z" fill="#9B9999"/>
<path d="M26.25 25.625C25.9049 25.625 25.625 25.9049 25.625 26.25V26.875C25.625 27.2201 25.9049 27.5 26.25 27.5C26.5951 27.5 26.875 27.2201 26.875 26.875V26.25C26.875 25.9049 26.5951 25.625 26.25 25.625Z" fill="#9B9999"/>
</svg>
