<svg width="24" height="21" viewBox="0 0 24 21" fill="none" xmlns="http://www.w3.org/2000/svg">
<path fill-rule="evenodd" clip-rule="evenodd" d="M22.0816 2.73046H19.5096V5.04527H9.22156V2.73046H6.64946V4.46657H5.36353V1.57305H9.33127C9.59615 0.898755 10.3106 0.415649 11.1506 0.415649H17.5806C18.4205 0.415649 19.135 0.898755 19.3998 1.57305H23.3676V20.0916H5.36353V16.6193H6.64946V18.9341H22.0816V2.73046ZM18.2236 3.88787V2.15176C18.2236 1.83214 17.9357 1.57305 17.5806 1.57305H11.1506C10.7954 1.57305 10.5075 1.83214 10.5075 2.15176V3.88787H18.2236Z" fill="#404040"/>
<path fill-rule="evenodd" clip-rule="evenodd" d="M3.14226 5.56584L0.418976 8.01683C0.153495 8.25579 0.153495 8.64305 0.418976 8.88324L8.58894 16.2362C8.71698 16.3501 8.88987 16.4151 9.07096 16.4151H11.7943C12.1701 16.4151 12.4751 16.1406 12.4751 15.8024V13.3513C12.4751 13.1884 12.4029 13.0328 12.2763 12.9188L4.1064 5.56584C3.83948 5.32565 3.40919 5.32565 3.14226 5.56584ZM5.01593 8.11732L3.25535 9.70187L1.86368 8.44942L3.62439 6.86486L5.01593 8.11732ZM11.1134 15.1897H9.35283L4.21804 10.5683L5.97863 8.98373L11.1134 13.605V15.1897Z" fill="#404040"/>
</svg>
